<svg height="512" viewBox="0 0 58 58" width="512" xmlns="http://www.w3.org/2000/svg"><g id="Page-1" fill="none" fill-rule="evenodd"><g id="020---Refresh-Graph" fill-rule="nonzero" transform="translate(-1)"><path id="Shape" d="m44.416 22.049-4.516 1.29c-.4227874.1212319-.7499272.4570282-.8600785.8828368-.1101513.4258087.0131154.8781194.3240785 1.1891632l.91.91-4.274 4.265-4.294-4.293c-.3904999-.3903819-1.0235001-.3903819-1.414 0l-7.292 7.293-2.293-2.293c-.3904999-.3903819-1.0235001-.3903819-1.414 0l-5 5c-.2599566.2510745-.3642126.6228779-.2726972.9725073.0915155.3496295.3645604.6226744.7141899.7141899.3496294.0915154.7214328-.0127406.9725073-.2726972l4.293-4.293 2.293 2.293c.3904999.3903819 1.0235001.3903819 1.414 0l7.293-7.293 4.293 4.293c.3903851.3897159 1.0226149.3897159 1.413 0l4.983-4.973.9.9c.311185.3109466.7636402.4340811 1.1894843.3237151.4258441-.1103659.7615349-.4377642.8825157-.8607151l1.29-4.515c.1227111-.4332746.0012857-.8990294-.3173436-1.2172437-.3186294-.3182142-.7845421-.4390322-1.2176564-.3157563z" fill="#e64c3c"/><path id="Shape" d="m7.1 17.063c-.75945669-.3977606-1.65261517-.4523208-2.45484015-.1499584-.80222499.3023624-1.43717644.9328745-1.74515985 1.7329584-4.62646462 12.087417-.68319199 25.7773455 9.6642779 33.5516424 10.3474698 7.7742969 24.5939778 7.7507773 34.9157221-.0576424l1.62 1.62c.2542172.2607298.6330484.3571121.9809598.2495758.3479114-.1075362.6062842-.4008724.6690402-.7595758l.83-4.86.62-3.68c.0459942-.3087635-.0548399-.6212926-.2726152-.8449537-.2177752-.223661-.5275048-.332792-.8373848-.2950463l-3.86.65-4.13.7-.58.1c-.3566038.0616946-.6491091.3169664-.7584915.6619417-.1093825.3449754-.0174104.7221546.2384915.9780583l1.18 1.18c-8.2848694 5.7886846-19.3779073 5.490615-27.3399629-.7346242-7.96205555-6.2252391-10.92725097-16.9187862-7.3080371-26.3553758.52753612-1.4143191-.08814081-2.9995152-1.432-3.687z" fill="#65ddb9"/><path id="Shape" d="m52.9 40.937c-1.3423285-.6888516-1.9561507-2.2736991-1.428-3.687 3.4253457-8.9221044.9763476-19.0327939-6.1520143-25.398593-7.1283618-6.36579913-17.4505885-7.66012147-25.9299857-3.251407-.8891322.46452956-1.7475603.98559876-2.57 1.56l1.17 1.17c.2607298.2542172.3571121.6330484.2495758.9809598-.1075362.3479114-.4008724.6062842-.7595758.6690402l-4.71.8-3.83.65c-.31561405.0537528-.63770862-.0487604-.86419432-.2750474s-.32928146-.5482915-.27580568-.8639526l.62-3.681.01-.01.82-4.85c.06024967-.3567289.31458652-.64998902.65920683-.76009068.34462027-.11010166.72187497-.01862674.97779317.23709068l1.633 1.633c.22-.17.44-.33.67-.49 10.4158593-7.41025108 24.4552811-7.12661753 34.5633502.69827133 10.1080691 7.82488887 13.9005593 21.34534857 9.3366498 33.28572867-.3079834.8000839-.9429349 1.430596-1.7451598 1.7329584-.802225.3023624-1.6953835.2478022-2.4548402-.1499584z" fill="#65ddb9"/><path id="Shape" d="m44 41h-29c-.5522847 0-1-.4477153-1-1v-21c0-.5522847.4477153-1 1-1s1 .4477153 1 1v20h28c.5522847 0 1 .4477153 1 1s-.4477153 1-1 1z" fill="#4482c3"/></g></g></svg>