<?xml version="1.0" encoding="UTF-8" standalone="no"?>
<!-- Created with Inkscape (http://www.inkscape.org/) -->

<svg
   xmlns:dc="http://purl.org/dc/elements/1.1/"
   xmlns:cc="http://creativecommons.org/ns#"
   xmlns:rdf="http://www.w3.org/1999/02/22-rdf-syntax-ns#"
   xmlns:svg="http://www.w3.org/2000/svg"
   xmlns="http://www.w3.org/2000/svg"
   xmlns:sodipodi="http://sodipodi.sourceforge.net/DTD/sodipodi-0.dtd"
   xmlns:inkscape="http://www.inkscape.org/namespaces/inkscape"
   version="1.1"
   id="svg2"
   xml:space="preserve"
   width="664.22266"
   height="589.38934"
   viewBox="0 0 664.22266 589.38934"
   sodipodi:docname="prefetch.svg"
   inkscape:version="0.92.5 (2060ec1f9f, 2020-04-08)"><metadata
     id="metadata8"><rdf:RDF><cc:Work
         rdf:about=""><dc:format>image/svg+xml</dc:format><dc:type
           rdf:resource="http://purl.org/dc/dcmitype/StillImage" /><dc:title></dc:title></cc:Work></rdf:RDF></metadata><defs
     id="defs6"><clipPath
       clipPathUnits="userSpaceOnUse"
       id="clipPath18"><path
         d="M 0,442.042 H 498.167 V 0 H 0 Z"
         id="path16"
         inkscape:connector-curvature="0" /></clipPath><clipPath
       clipPathUnits="userSpaceOnUse"
       id="clipPath50"><path
         d="m 166.35,248.632 -0.275,-147.602 136.75,19.219 0.274,147.603 z"
         id="path48"
         inkscape:connector-curvature="0" /></clipPath></defs><sodipodi:namedview
     pagecolor="#ffffff"
     bordercolor="#666666"
     borderopacity="1"
     objecttolerance="10"
     gridtolerance="10"
     guidetolerance="10"
     inkscape:pageopacity="0"
     inkscape:pageshadow="2"
     inkscape:window-width="1428"
     inkscape:window-height="765"
     id="namedview4"
     showgrid="false"
     inkscape:zoom="0.40041443"
     inkscape:cx="332.11133"
     inkscape:cy="294.69467"
     inkscape:window-x="0"
     inkscape:window-y="0"
     inkscape:window-maximized="0"
     inkscape:current-layer="g10" /><g
     id="g10"
     inkscape:groupmode="layer"
     inkscape:label="Web Puzzlers Icons Svg"
     transform="matrix(1.3333333,0,0,-1.3333333,0,589.38933)"><g
       id="g12"
       transform="matrix(1.29528,0,0,1.29528,-74.242134,-67.799681)"><g
         id="g14"
         clip-path="url(#clipPath18)"><g
           id="g20"
           transform="translate(363.9705,155.9116)"><path
             d="M 0,0 C 0.844,-0.362 1.698,-0.703 2.562,-1.024 2.746,-1.093 2.936,-1.151 3.121,-1.217 3.803,-1.462 4.488,-1.702 5.182,-1.922 5.503,-2.023 5.831,-2.11 6.154,-2.206 6.721,-2.374 7.287,-2.543 7.86,-2.694 7.935,-2.713 8.008,-2.738 8.083,-2.757 8.756,-2.931 9.435,-3.09 10.118,-3.24 c 0.154,-0.034 0.31,-0.063 0.465,-0.095 0.649,-0.137 1.303,-0.263 1.961,-0.378 0.22,-0.038 0.44,-0.077 0.661,-0.112 0.803,-0.131 1.609,-0.251 2.424,-0.349 L -2.696,5.795 c -0.814,0.097 -1.621,0.217 -2.424,0.348 -0.22,0.036 -0.44,0.074 -0.66,0.113 -0.658,0.115 -1.312,0.24 -1.962,0.377 -0.154,0.033 -0.31,0.062 -0.464,0.095 -0.759,0.167 -1.511,0.351 -2.258,0.547 -0.574,0.15 -1.14,0.319 -1.706,0.487 -0.324,0.096 -0.651,0.183 -0.973,0.285 -0.692,0.219 -1.376,0.458 -2.056,0.703 -0.187,0.067 -0.378,0.125 -0.564,0.194 -0.864,0.321 -1.718,0.663 -2.561,1.024 -0.228,0.098 -0.449,0.207 -0.675,0.308 -0.611,0.271 -1.222,0.545 -1.822,0.838 -0.741,0.362 -1.475,0.736 -2.198,1.129 L -4.694,2.275 c 0.678,-0.369 1.365,-0.725 2.06,-1.066 0.046,-0.022 0.092,-0.041 0.138,-0.063 0.6,-0.293 1.21,-0.567 1.822,-0.839 C -0.448,0.207 -0.227,0.097 0,0"
             style="fill:#011c45;fill-opacity:1;fill-rule:nonzero;stroke:none"
             id="path22"
             inkscape:connector-curvature="0" /></g><g
           id="g24"
           transform="translate(301.5653,328.1304)"><path
             d="M 0,0 -18.325,9.968 60.057,20.984 78.382,11.016 Z"
             style="fill:#011c45;fill-opacity:1;fill-rule:nonzero;stroke:none"
             id="path26"
             inkscape:connector-curvature="0" /></g><g
           id="g28"
           transform="translate(239.0896,357.8083)"><path
             d="M 0,0 C 0.229,0.411 0.463,0.819 0.705,1.222 0.94,1.615 1.182,2.004 1.429,2.389 1.682,2.785 1.938,3.178 2.203,3.566 2.469,3.957 2.742,4.343 3.02,4.725 3.264,5.061 3.51,5.395 3.762,5.723 4.057,6.108 4.36,6.485 4.667,6.86 4.928,7.18 5.19,7.498 5.459,7.81 c 0.316,0.365 0.64,0.721 0.966,1.076 0.28,0.304 0.559,0.61 0.847,0.906 0.336,0.347 0.682,0.682 1.028,1.017 0.294,0.285 0.586,0.571 0.887,0.846 0.325,0.298 0.66,0.583 0.993,0.87 0.368,0.318 0.737,0.637 1.115,0.942 0.338,0.273 0.684,0.533 1.028,0.794 0.385,0.293 0.77,0.584 1.164,0.862 0.597,0.423 1.2,0.84 1.816,1.229 0.042,0.027 0.084,0.051 0.126,0.077 0.643,0.403 1.299,0.783 1.961,1.149 0.145,0.08 0.29,0.162 0.437,0.241 0.666,0.357 1.342,0.695 2.026,1.013 0.472,0.219 0.954,0.414 1.433,0.614 0.357,0.148 0.71,0.309 1.071,0.446 0.508,0.194 1.025,0.359 1.541,0.531 0.344,0.114 0.684,0.243 1.031,0.347 0.579,0.174 1.167,0.315 1.754,0.46 0.293,0.072 0.581,0.161 0.876,0.226 0.886,0.195 1.78,0.358 2.683,0.485 0.79,0.111 1.573,0.184 2.351,0.239 0.162,0.011 0.324,0.024 0.485,0.033 0.754,0.042 1.501,0.061 2.241,0.052 0.129,-0.001 0.256,-0.008 0.384,-0.011 0.686,-0.017 1.365,-0.054 2.038,-0.114 0.105,-0.009 0.21,-0.014 0.315,-0.025 0.724,-0.071 1.439,-0.172 2.146,-0.292 0.154,-0.027 0.307,-0.055 0.46,-0.083 0.711,-0.133 1.415,-0.282 2.107,-0.463 0.052,-0.013 0.103,-0.03 0.155,-0.044 0.654,-0.175 1.296,-0.375 1.931,-0.591 0.143,-0.048 0.286,-0.095 0.427,-0.146 0.656,-0.234 1.301,-0.489 1.935,-0.767 0.116,-0.051 0.23,-0.107 0.346,-0.159 0.645,-0.294 1.283,-0.602 1.904,-0.939 l -18.325,9.968 c -0.358,0.195 -0.72,0.382 -1.086,0.562 -0.269,0.133 -0.544,0.253 -0.817,0.377 -0.116,0.052 -0.23,0.108 -0.346,0.159 -0.634,0.278 -1.28,0.533 -1.935,0.767 -0.142,0.051 -0.285,0.098 -0.427,0.147 -0.635,0.216 -1.278,0.416 -1.931,0.59 -0.053,0.014 -0.104,0.031 -0.156,0.045 -0.019,0.005 -0.038,0.011 -0.057,0.016 -0.673,0.174 -1.358,0.317 -2.05,0.446 -0.152,0.029 -0.306,0.057 -0.46,0.083 -0.707,0.12 -1.421,0.221 -2.146,0.293 -0.104,0.01 -0.21,0.015 -0.314,0.025 -0.673,0.059 -1.352,0.097 -2.037,0.113 -0.129,0.003 -0.257,0.01 -0.386,0.012 -0.74,0.009 -1.487,-0.01 -2.24,-0.053 C 14.592,32.172 14.43,32.16 14.268,32.148 13.49,32.093 12.708,32.02 11.917,31.909 11.015,31.783 10.12,31.619 9.234,31.424 8.94,31.359 8.653,31.271 8.362,31.199 7.773,31.054 7.184,30.913 6.604,30.738 6.257,30.634 5.917,30.506 5.573,30.391 5.058,30.22 4.541,30.055 4.033,29.861 3.669,29.722 3.314,29.561 2.955,29.411 2.478,29.212 1.999,29.019 1.529,28.801 1.47,28.773 1.408,28.752 1.35,28.724 0.726,28.43 0.112,28.114 -0.497,27.787 -0.645,27.708 -0.79,27.627 -0.936,27.546 -1.599,27.18 -2.254,26.799 -2.897,26.396 -2.938,26.37 -2.98,26.347 -3.021,26.321 c -0.49,-0.309 -0.974,-0.628 -1.452,-0.959 -0.124,-0.086 -0.241,-0.183 -0.365,-0.27 -0.393,-0.279 -0.778,-0.57 -1.163,-0.862 -0.345,-0.262 -0.69,-0.522 -1.029,-0.795 -0.378,-0.305 -0.746,-0.624 -1.116,-0.942 -0.233,-0.202 -0.476,-0.39 -0.705,-0.596 -0.098,-0.088 -0.189,-0.184 -0.286,-0.273 -0.301,-0.276 -0.594,-0.563 -0.889,-0.848 -0.346,-0.334 -0.69,-0.669 -1.026,-1.015 -0.288,-0.297 -0.568,-0.602 -0.848,-0.907 -0.208,-0.226 -0.425,-0.442 -0.628,-0.672 -0.116,-0.131 -0.223,-0.271 -0.337,-0.404 -0.27,-0.312 -0.532,-0.631 -0.794,-0.951 -0.305,-0.374 -0.608,-0.75 -0.903,-1.134 -0.252,-0.33 -0.499,-0.664 -0.744,-1.001 -0.153,-0.211 -0.316,-0.413 -0.466,-0.627 -0.122,-0.173 -0.23,-0.356 -0.35,-0.531 -0.264,-0.388 -0.521,-0.78 -0.774,-1.177 -0.247,-0.385 -0.488,-0.772 -0.723,-1.165 -0.242,-0.405 -0.477,-0.813 -0.707,-1.225 -0.124,-0.223 -0.26,-0.437 -0.381,-0.662 -0.13,-0.242 -0.25,-0.49 -0.376,-0.735 -0.107,-0.21 -0.216,-0.419 -0.321,-0.631 -0.37,-0.743 -0.727,-1.494 -1.057,-2.258 -0.332,-0.765 -0.639,-1.541 -0.931,-2.324 -0.023,-0.061 -0.049,-0.119 -0.072,-0.18 -0.174,-0.474 -0.334,-0.953 -0.494,-1.433 -0.038,-0.117 -0.082,-0.232 -0.12,-0.35 -0.217,-0.672 -0.417,-1.351 -0.603,-2.034 -0.054,-0.197 -0.1,-0.397 -0.151,-0.595 -0.126,-0.491 -0.249,-0.982 -0.359,-1.477 -0.057,-0.255 -0.107,-0.512 -0.16,-0.768 -0.091,-0.446 -0.177,-0.892 -0.254,-1.341 -0.047,-0.272 -0.091,-0.544 -0.133,-0.817 -0.069,-0.446 -0.129,-0.893 -0.184,-1.342 -0.033,-0.267 -0.066,-0.535 -0.094,-0.803 -0.05,-0.485 -0.088,-0.971 -0.122,-1.459 -0.016,-0.23 -0.037,-0.459 -0.049,-0.689 -0.038,-0.717 -0.062,-1.436 -0.063,-2.156 -0.007,-3.858 0.505,-7.522 1.473,-10.916 0.581,-2.036 1.325,-3.975 2.22,-5.801 l 18.325,-9.968 c -2.386,4.868 -3.705,10.543 -3.694,16.716 0.002,0.721 0.026,1.44 0.064,2.156 0.012,0.231 0.033,0.46 0.049,0.69 0.034,0.487 0.071,0.974 0.122,1.458 0.027,0.269 0.061,0.536 0.093,0.804 0.055,0.448 0.116,0.896 0.184,1.341 0.042,0.273 0.086,0.546 0.133,0.818 0.077,0.448 0.164,0.894 0.255,1.339 0.052,0.257 0.103,0.515 0.16,0.771 0.11,0.495 0.232,0.987 0.359,1.478 0.051,0.197 0.096,0.395 0.15,0.591 0.186,0.684 0.387,1.364 0.604,2.037 0.037,0.115 0.08,0.227 0.117,0.341 0.18,0.544 0.369,1.084 0.569,1.62 0.292,0.783 0.599,1.56 0.931,2.324 0.33,0.765 0.687,1.516 1.057,2.26 0.104,0.211 0.213,0.419 0.32,0.628 0.243,0.472 0.5,0.937 0.759,1.4"
             style="fill:#011c45;fill-opacity:1;fill-rule:nonzero;stroke:none"
             id="path30"
             inkscape:connector-curvature="0" /></g><g
           id="g32"
           transform="translate(136.5447,90.4985)"><path
             d="m 0,0 0.398,214.496 -18.324,9.968 -0.399,-214.496 c -0.029,-15.591 7.492,-28.221 18.841,-34.395 l 18.325,-9.968 C 7.491,-28.221 -0.029,-15.591 0,0"
             style="fill:#011c45;fill-opacity:1;fill-rule:nonzero;stroke:none"
             id="path34"
             inkscape:connector-curvature="0" /></g><g
           id="g36"
           transform="translate(136.9431,304.9943)"><path
             d="M 0,0 -18.325,9.968 81.589,24.01 99.914,14.042 Z"
             style="fill:#011c45;fill-opacity:1;fill-rule:nonzero;stroke:none"
             id="path38"
             inkscape:connector-curvature="0" /></g><g
           id="g40"
           transform="translate(269.3315,379.7493)"><path
             d="m 0,0 c 14.154,1.989 26.41,-5.131 32.266,-17.144 2.385,-4.868 3.736,-10.538 3.725,-16.711 -0.012,-6.174 -1.353,-12.222 -3.757,-17.764 l 78.382,11.016 -0.083,-44.725 c -29.83,-11.946 -52.104,-44.136 -52.168,-78.668 -0.065,-34.531 22.102,-60.45 51.903,-64.015 l -0.132,-70.922 -202.383,-28.443 c -22.43,-3.153 -40.585,13.917 -40.54,38.125 l 0.399,214.496 99.913,14.042 c -2.385,4.868 -3.704,10.543 -3.692,16.716 0.011,6.174 1.384,12.227 3.789,17.768 C -26.475,-12.563 -14.163,-1.99 0,0"
             style="fill:#03326d;fill-opacity:1;fill-rule:nonzero;stroke:none"
             id="path42"
             inkscape:connector-curvature="0" /></g></g></g><g
       id="g44"
       transform="matrix(1.29528,0,0,1.29528,-74.242134,-67.799681)"><g
         id="g46"
         clip-path="url(#clipPath50)"><g
           id="g52"
           transform="translate(234.7242,258.2419)"><path
             d="m 0,0 -0.032,-17.37 c 13.385,1.882 26.752,-1.746 36.937,-11.326 20.378,-19.169 20.311,-54.902 -0.148,-79.81 l -14.39,13.544 -0.081,-43.411 40.213,5.652 -14.382,13.537 c 26.752,32.569 26.839,79.291 0.194,104.365 C 34.984,-2.292 17.503,2.451 0,0"
             style="fill:#ffffff;fill-opacity:1;fill-rule:nonzero;stroke:none"
             id="path54"
             inkscape:connector-curvature="0" /></g><g
           id="g56"
           transform="translate(212.1636,249.0206)"><path
             d="m 0,0 -40.22,-5.653 14.39,-13.544 c -26.753,-32.569 -26.839,-79.292 -0.194,-104.365 13.326,-12.527 30.808,-17.279 48.31,-14.819 l 0.033,17.361 c -13.378,-1.872 -26.753,1.754 -36.938,11.335 -20.385,19.176 -20.319,54.901 0.148,79.81 l 14.39,-13.536 z"
             style="fill:#ffffff;fill-opacity:1;fill-rule:nonzero;stroke:none"
             id="path58"
             inkscape:connector-curvature="0" /></g><g
           id="g60"
           transform="translate(238.6892,234.5797)"><path
             d="m 0,0 c -2.065,-0.29 -4.133,-1.411 -5.737,-3.304 -3.267,-3.874 -3.357,-9.513 -0.208,-12.589 1.456,-1.42 3.36,-2.034 5.307,-1.916 l -0.288,-17.034 0.016,-0.093 c -0.155,-0.015 -0.309,-0.034 -0.463,-0.056 -3.075,-0.432 -6.147,-2.095 -8.524,-4.906 -2.312,-2.737 -3.551,-6.057 -3.717,-9.287 l -9.06,-1.118 c -0.076,2.09 -0.833,4.058 -2.288,5.478 -1.608,1.575 -3.757,2.177 -5.909,1.874 -2.064,-0.29 -4.131,-1.411 -5.729,-3.302 -3.267,-3.873 -3.358,-9.513 -0.208,-12.597 1.607,-1.569 3.754,-2.169 5.905,-1.867 2.066,0.29 4.134,1.411 5.733,3.304 1.534,1.814 2.362,4.031 2.494,6.185 l 9.044,1.115 c 0.042,-3.218 1.158,-6.277 3.38,-8.471 l -16.999,-20.117 c -0.128,0.129 -0.24,0.269 -0.376,0.397 -1.608,1.574 -3.757,2.176 -5.909,1.874 -2.064,-0.29 -4.131,-1.411 -5.73,-3.303 -3.266,-3.873 -3.357,-9.513 -0.207,-12.597 1.607,-1.569 3.754,-2.169 5.906,-1.866 2.064,0.29 4.133,1.411 5.733,3.303 2.921,3.462 3.291,8.329 1.094,11.52 l 17.088,20.225 c 2.319,-1.957 5.277,-2.689 8.238,-2.273 3.071,0.432 6.146,2.098 8.52,4.914 2.335,2.765 3.575,6.129 3.725,9.392 L 19.875,-46 c 0.06,-2.127 0.809,-4.139 2.288,-5.582 1.611,-1.569 3.758,-2.169 5.909,-1.866 2.065,0.29 4.134,1.411 5.737,3.304 3.267,3.865 3.357,9.513 0.208,12.588 -1.612,1.57 -3.761,2.172 -5.912,1.87 -2.063,-0.29 -4.128,-1.411 -5.727,-3.307 -1.509,-1.785 -2.33,-3.949 -2.478,-6.07 l -9.059,-1.118 c -0.058,3.208 -1.206,6.244 -3.428,8.404 -2.071,2.034 -4.76,2.97 -7.523,2.893 l 0.033,0.143 0.287,17.025 c 1.979,0.339 3.951,1.437 5.484,3.252 C 8.969,-10.59 9.06,-4.95 5.91,-1.866 4.299,-0.298 2.152,0.302 0,0"
             style="fill:#ffffff;fill-opacity:1;fill-rule:nonzero;stroke:none"
             id="path62"
             inkscape:connector-curvature="0" /></g></g></g></g></svg>